<svg width="396" height="296" xmlns="http://www.w3.org/2000/svg"><polygon points="103,203 103,233 133,233 133,203" style="fill:#0d0;stroke:#000;" /><polygon points="103,233 103,263 133,263 133,233" style="fill:#ff0;stroke:#000;" /><polygon points="103,263 103,293 133,293 133,263" style="fill:#00f;stroke:#000;" /><polygon points="133,203 133,233 163,233 163,203" style="fill:#f00;stroke:#000;" /><polygon points="133,233 133,263 163,263 163,233" style="fill:#ff0;stroke:#000;" /><polygon points="133,263 133,293 163,293 163,263" style="fill:#fa0;stroke:#000;" /><polygon points="163,203 163,233 193,233 193,203" style="fill:#ff0;stroke:#000;" /><polygon points="163,233 163,263 193,263 193,233" style="fill:#00f;stroke:#000;" /><polygon points="163,263 163,293 193,293 193,263" style="fill:#f00;stroke:#000;" /><polygon points="3,103 3,133 33,133 33,103" style="fill:#f00;stroke:#000;" /><polygon points="3,133 3,163 33,163 33,133" style="fill:#00f;stroke:#000;" /><polygon points="3,163 3,193 33,193 33,163" style="fill:#fff;stroke:#000;" /><polygon points="33,103 33,133 63,133 63,103" style="fill:#f00;stroke:#000;" /><polygon points="33,133 33,163 63,163 63,133" style="fill:#fa0;stroke:#000;" /><polygon points="33,163 33,193 63,193 63,163" style="fill:#f00;stroke:#000;" /><polygon points="63,103 63,133 93,133 93,103" style="fill:#fa0;stroke:#000;" /><polygon points="63,133 63,163 93,163 93,133" style="fill:#fa0;stroke:#000;" /><polygon points="63,163 63,193 93,193 93,163" style="fill:#ff0;stroke:#000;" /><polygon points="303,103 303,133 333,133 333,103" style="fill:#0d0;stroke:#000;" /><polygon points="303,133 303,163 333,163 333,133" style="fill:#0d0;stroke:#000;" /><polygon points="303,163 303,193 333,193 333,163" style="fill:#fff;stroke:#000;" /><polygon points="333,103 333,133 363,133 363,103" style="fill:#ff0;stroke:#000;" /><polygon points="333,133 333,163 363,163 363,133" style="fill:#00f;stroke:#000;" /><polygon points="333,163 333,193 363,193 363,163" style="fill:#ff0;stroke:#000;" /><polygon points="363,103 363,133 393,133 393,103" style="fill:#00f;stroke:#000;" /><polygon points="363,133 363,163 393,163 393,133" style="fill:#fff;stroke:#000;" /><polygon points="363,163 363,193 393,193 393,163" style="fill:#f00;stroke:#000;" /><polygon points="103,3 103,33 133,33 133,3" style="fill:#ff0;stroke:#000;" /><polygon points="103,33 103,63 133,63 133,33" style="fill:#fff;stroke:#000;" /><polygon points="103,63 103,93 133,93 133,63" style="fill:#00f;stroke:#000;" /><polygon points="133,3 133,33 163,33 163,3" style="fill:#00f;stroke:#000;" /><polygon points="133,33 133,63 163,63 163,33" style="fill:#fff;stroke:#000;" /><polygon points="133,63 133,93 163,93 163,63" style="fill:#ff0;stroke:#000;" /><polygon points="163,3 163,33 193,33 193,3" style="fill:#fff;stroke:#000;" /><polygon points="163,33 163,63 193,63 193,33" style="fill:#fff;stroke:#000;" /><polygon points="163,63 163,93 193,93 193,63" style="fill:#ff0;stroke:#000;" /><polygon points="203,103 203,133 233,133 233,103" style="fill:#00f;stroke:#000;" /><polygon points="203,133 203,163 233,163 233,133" style="fill:#00f;stroke:#000;" /><polygon points="203,163 203,193 233,193 233,163" style="fill:#f00;stroke:#000;" /><polygon points="233,103 233,133 263,133 263,103" style="fill:#0d0;stroke:#000;" /><polygon points="233,133 233,163 263,163 263,133" style="fill:#f00;stroke:#000;" /><polygon points="233,163 233,193 263,193 263,163" style="fill:#f00;stroke:#000;" /><polygon points="263,103 263,133 293,133 293,103" style="fill:#fa0;stroke:#000;" /><polygon points="263,133 263,163 293,163 293,133" style="fill:#fa0;stroke:#000;" /><polygon points="263,163 263,193 293,193 293,163" style="fill:#0d0;stroke:#000;" /><polygon points="103,103 103,133 133,133 133,103" style="fill:#fff;stroke:#000;" /><polygon points="103,133 103,163 133,163 133,133" style="fill:#fff;stroke:#000;" /><polygon points="103,163 103,193 133,193 133,163" style="fill:#fa0;stroke:#000;" /><polygon points="133,103 133,133 163,133 163,103" style="fill:#0d0;stroke:#000;" /><polygon points="133,133 133,163 163,163 163,133" style="fill:#0d0;stroke:#000;" /><polygon points="133,163 133,193 163,193 163,163" style="fill:#0d0;stroke:#000;" /><polygon points="163,103 163,133 193,133 193,103" style="fill:#fa0;stroke:#000;" /><polygon points="163,133 163,163 193,163 193,133" style="fill:#fa0;stroke:#000;" /><polygon points="163,163 163,193 193,193 193,163" style="fill:#0d0;stroke:#000;" /></svg>