<?xml version="1.0" encoding="UTF-8" standalone="no"?>
<!-- Created with Inkscape (http://www.inkscape.org/) -->

<svg
   width="21mm"
   height="21mm"
   viewBox="36.802991 76.818939 139.617689 149.256571"
   version="1.1"
   id="svg5"
   inkscape:version="1.1.2 (b8e25be833, 2022-02-05)"
   sodipodi:docname="roughCube.svg"
   xmlns:inkscape="http://www.inkscape.org/namespaces/inkscape"
   xmlns:sodipodi="http://sodipodi.sourceforge.net/DTD/sodipodi-0.dtd"
   xmlns:xlink="http://www.w3.org/1999/xlink"
   xmlns="http://www.w3.org/2000/svg"
   xmlns:svg="http://www.w3.org/2000/svg">
  <sodipodi:namedview
     id="namedview7"
     pagecolor="#ffffff"
     bordercolor="#666666"
     borderopacity="1.0"
     inkscape:pageshadow="2"
     inkscape:pageopacity="0.0"
     inkscape:pagecheckerboard="0"
     inkscape:document-units="mm"
     showgrid="false"
     inkscape:zoom="0.45291836"
     inkscape:cx="436.06093"
     inkscape:cy="646.9157"
     inkscape:window-width="1920"
     inkscape:window-height="1009"
     inkscape:window-x="-8"
     inkscape:window-y="-8"
     inkscape:window-maximized="1"
     inkscape:current-layer="layer1" />
  <defs
     id="defs2" />
  <g
     inkscape:groupmode="layer"
     id="layer2"
     inkscape:label="Layer 2">
    <path
       style="fill:#ffb200;stroke:#000000;stroke-width:0.264583px;stroke-linecap:butt;stroke-linejoin:miter;stroke-opacity:1;fill-opacity:1"
       d="m 102.52261,156.55875 26.57994,-14.89645 -1.46043,26.87203 -26.28786,14.89645 z"
       id="path1067" />
    <path
       style="fill:#00ff00;stroke:#000000;stroke-width:0.264583px;stroke-linecap:butt;stroke-linejoin:miter;stroke-opacity:1;fill-opacity:1"
       d="m 105.1514,123.84498 23.95115,17.81732 -26.57994,14.89645 -24.243235,-18.40149 z"
       id="path2752" />
    <path
       style="fill:#ffffff;stroke:#000000;stroke-width:0.264583px;stroke-linecap:butt;stroke-linejoin:miter;stroke-opacity:1;fill-opacity:1"
       d="M 101.35426,183.43078 78.571462,164.15302 78.279375,138.15726 102.52261,156.55875 Z"
       id="path3216" />
    <path
       style="fill:#ffb200;stroke:#000000;stroke-width:0.264583px;stroke-linecap:butt;stroke-linejoin:miter;stroke-opacity:1;fill-opacity:1"
       d="m 78.279375,138.15726 -22.198628,-16.35689 2.628783,26.57994 19.861932,15.77271 z"
       id="path3680" />
    <path
       style="fill:#ffb200;stroke:#000000;stroke-width:0.264583px;stroke-linecap:butt;stroke-linejoin:miter;stroke-opacity:1;fill-opacity:1"
       d="m 56.080747,121.80037 -19.277756,-14.60436 4.08922,25.99576 17.817319,15.18854 z"
       id="path3682" />
    <path
       style="fill:#ffffff;stroke:#000000;stroke-width:0.264583px;stroke-linecap:butt;stroke-linejoin:miter;stroke-opacity:1;fill-opacity:1"
       d="M 105.1514,123.84498 83.536945,109.53271 56.080747,121.80037 78.279375,138.15726 Z"
       id="path3684" />
    <path
       style="fill:#ffffff;stroke:#000000;stroke-width:0.264583px;stroke-linecap:butt;stroke-linejoin:miter;stroke-opacity:1;fill-opacity:1"
       d="M 83.536945,109.53271 62.506666,94.928347 36.802991,107.19601 56.080747,121.80037 Z"
       id="path3686" />
    <path
       style="fill:#ffffff;stroke:#000000;stroke-width:0.264583px;stroke-linecap:butt;stroke-linejoin:miter;stroke-opacity:1;fill-opacity:1"
       d="m 129.10255,141.6623 25.41159,-15.77271 -24.82741,-14.31227 -24.53533,12.26766 z"
       id="path3688" />
    <path
       style="fill:#ffffff;stroke:#000000;stroke-width:0.264583px;stroke-linecap:butt;stroke-linejoin:miter;stroke-opacity:1;fill-opacity:1"
       d="M 154.51414,125.88959 176.42068,113.62193 151.00909,99.309654 129.68673,111.57732 Z"
       id="path3690" />
    <path
       style="fill:#ffffff;stroke:#000000;stroke-width:0.264583px;stroke-linecap:butt;stroke-linejoin:miter;stroke-opacity:1;fill-opacity:1"
       d="M 129.68673,111.57732 107.19601,97.849218 83.536945,109.53271 105.1514,123.84498 Z"
       id="path3692" />
    <path
       style="fill:#ffffff;stroke:#000000;stroke-width:0.264583px;stroke-linecap:butt;stroke-linejoin:miter;stroke-opacity:1;fill-opacity:1"
       d="M 151.00909,99.309652 127.9342,88.210341 107.19601,97.849218 129.68673,111.57732 Z"
       id="path3694" />
    <path
       style="fill:#ffffff;stroke:#000000;stroke-width:0.264583px;stroke-linecap:butt;stroke-linejoin:miter;stroke-opacity:1;fill-opacity:1"
       d="m 127.9342,88.210339 -19.86193,-11.3914 -19.277755,9.054703 18.401495,11.975576 z"
       id="path3696" />
    <path
       style="fill:#ffffff;stroke:#000000;stroke-width:0.264583px;stroke-linecap:butt;stroke-linejoin:miter;stroke-opacity:1;fill-opacity:1"
       d="M 88.794515,85.873642 62.506666,94.928345 83.536945,109.53271 107.19601,97.849218 Z"
       id="path3698" />
    <path
       style="fill:#00ff00;stroke:#000000;stroke-width:0.264583px;stroke-linecap:butt;stroke-linejoin:miter;stroke-opacity:1;fill-opacity:1"
       d="m 101.35426,183.43078 -1.46043,23.95115 25.99576,-17.23315 1.75253,-21.61445 z"
       id="path3700" />
    <path
       style="fill:#00ff00;stroke:#000000;stroke-width:0.264583px;stroke-linecap:butt;stroke-linejoin:miter;stroke-opacity:1;fill-opacity:1"
       d="m 99.893828,207.38193 2e-6,18.69358 23.07489,-16.64897 2.92087,-19.27776 z"
       id="path3702" />
    <path
       style="fill:#00ff00;stroke:#000000;stroke-width:0.264583px;stroke-linecap:butt;stroke-linejoin:miter;stroke-opacity:1;fill-opacity:1"
       d="m 129.10255,141.6623 25.41159,-15.77271 -4.08922,27.74829 -22.7828,14.89645 z"
       id="path3704" />
    <path
       style="fill:#00ff00;stroke:#000000;stroke-width:0.264583px;stroke-linecap:butt;stroke-linejoin:miter;stroke-opacity:1;fill-opacity:1"
       d="m 150.42492,153.63788 -3.79714,21.61445 -20.73819,14.89645 1.75253,-21.61445 z"
       id="path3706" />
    <path
       style="fill:#00ff00;stroke:#000000;stroke-width:0.264583px;stroke-linecap:butt;stroke-linejoin:miter;stroke-opacity:1;fill-opacity:1"
       d="m 176.42068,113.62193 -5.54966,26.87202 -20.4461,13.14393 4.08922,-27.74829 z"
       id="path3708" />
    <path
       style="fill:#00ff00;stroke:#000000;stroke-width:0.264583px;stroke-linecap:butt;stroke-linejoin:miter;stroke-opacity:1;fill-opacity:1"
       d="m 170.87102,140.49395 -5.25757,23.65907 -18.98567,11.09931 3.79714,-21.61445 z"
       id="path3710" />
    <path
       style="fill:#00ff00;stroke:#000000;stroke-width:0.264583px;stroke-linecap:butt;stroke-linejoin:miter;stroke-opacity:1;fill-opacity:1"
       d="m 146.62778,175.25233 -2.92087,20.44611 -20.73819,13.7281 2.92087,-19.27776 z"
       id="path3712" />
    <path
       style="fill:#00ff00;stroke:#000000;stroke-width:0.264583px;stroke-linecap:butt;stroke-linejoin:miter;stroke-opacity:1;fill-opacity:1"
       d="m 165.61345,164.15302 -3.50504,18.10941 -18.4015,13.43601 2.92087,-20.44611 z"
       id="path3714" />
    <path
       style="fill:#ffb200;stroke:#000000;stroke-width:0.264583px;stroke-linecap:butt;stroke-linejoin:miter;stroke-opacity:1;fill-opacity:1"
       d="M 99.893828,226.07551 79.447725,207.38193 v -18.98567 l 20.446103,18.98567 z"
       id="path3716" />
    <path
       style="fill:#ffb200;stroke:#000000;stroke-width:0.264583px;stroke-linecap:butt;stroke-linejoin:miter;stroke-opacity:1;fill-opacity:1"
       d="m 99.893828,207.38193 1.460432,-23.95115 -22.782798,-19.27776 0.876263,24.24324 z"
       id="path3718" />
    <path
       style="fill:#ffb200;stroke:#000000;stroke-width:0.264583px;stroke-linecap:butt;stroke-linejoin:miter;stroke-opacity:1;fill-opacity:1"
       d="M 79.447725,207.38193 62.214577,189.85669 61.92249,170.87102 79.447725,188.39626 Z"
       id="path3720" />
    <path
       style="fill:#ffb200;stroke:#000000;stroke-width:0.264583px;stroke-linecap:butt;stroke-linejoin:miter;stroke-opacity:1;fill-opacity:1"
       d="m 62.214577,189.85669 -14.60436,-16.64897 -2.04461,-16.94106 16.356883,14.60436 z"
       id="path3722" />
    <path
       style="fill:#ffb200;stroke:#000000;stroke-width:0.264583px;stroke-linecap:butt;stroke-linejoin:miter;stroke-opacity:1;fill-opacity:1"
       d="m 45.565607,156.26666 -4.673396,-23.07489 17.817319,15.18854 3.21296,22.49071 z"
       id="path3724" />
    <path
       style="fill:#ffb200;stroke:#000000;stroke-width:0.264583px;stroke-linecap:butt;stroke-linejoin:miter;stroke-opacity:1;fill-opacity:1"
       d="M 61.92249,170.87102 79.447725,188.39626 78.571462,164.15302 58.70953,148.38031 Z"
       id="path3726" />
  </g>
</svg>
